<svg xmlns="http://www.w3.org/2000/svg" width="119" height="45" viewBox="0 0 119 45">
    <g fill="none" fill-rule="nonzero">
        <path fill="#0A2F51" d="M50.486 24.289c.198 0 .343.08.436.24.092.161.138.344.138.55 0 .102-.01.19-.03.266a.494.494 0 0 1-.124.21 1.05 1.05 0 0 1-.246.185 3.782 3.782 0 0 1-.4.19c-.383.163-.683.36-.902.589-.219.229-.328.456-.328.682 0 .143.048.28.143.41.096.13.246.244.452.343.205.1.47.178.794.236a6.78 6.78 0 0 0 1.174.087c.472 0 .92-.056 1.344-.169a3.877 3.877 0 0 0 1.112-.477c.318-.205.57-.447.759-.728.188-.28.282-.584.282-.912 0-.246-.103-.503-.308-.77-.205-.266-.53-.543-.974-.83a29.037 29.037 0 0 1-1.79-1.24 27.296 27.296 0 0 1-.753-.595c-.513-.452-.895-.886-1.148-1.303a2.476 2.476 0 0 1-.38-1.302c0-.417.101-.824.303-1.22.201-.397.473-.77.815-1.118a7.326 7.326 0 0 1 1.184-.969 9.022 9.022 0 0 1 1.405-.764 9.043 9.043 0 0 1 1.477-.497c.495-.12.965-.18 1.41-.18.335 0 .644.038.928.113.283.076.531.194.743.354.212.16.378.368.497.62.12.253.18.558.18.913 0 .513-.147 1.002-.441 1.466-.294.465-.742.9-1.343 1.303-.267.184-.513.277-.739.277a.677.677 0 0 1-.553-.252.904.904 0 0 1-.206-.59c0-.19.057-.382.17-.574.112-.19.295-.355.548-.492.198-.102.375-.24.528-.415.154-.174.231-.343.231-.508 0-.157-.053-.26-.159-.307a.93.93 0 0 0-.384-.072c-.288 0-.6.036-.939.108a7.558 7.558 0 0 0-2 .733c-.317.17-.597.355-.84.554a2.862 2.862 0 0 0-.584.63c-.147.222-.22.443-.22.662 0 .15.03.29.091.42.062.13.152.26.272.39.12.13.265.265.436.405.17.14.369.292.595.456l2.399 1.774c.308.225.583.446.825.661.243.216.446.43.61.646.165.216.291.433.38.651.089.22.133.452.133.698 0 .547-.142 1.081-.425 1.604-.284.523-.687.99-1.21 1.4-.523.41-1.152.742-1.887.995-.735.253-1.55.38-2.446.38-.834 0-1.543-.068-2.127-.2-.585-.134-1.065-.315-1.44-.544-.377-.23-.65-.493-.821-.79a1.855 1.855 0 0 1-.257-.938c0-.342.088-.689.262-1.04.174-.353.42-.686.738-1a5.184 5.184 0 0 1 1.144-.841 5.885 5.885 0 0 1 1.466-.564zm11.304-.533a68.5 68.5 0 0 0-.787 1.578c-.247.513-.479.986-.696 1.42-.09.18-.178.388-.264.624-.086.236-.129.443-.129.623 0 .105.024.187.073.247.049.06.13.09.242.09.157 0 .355-.047.595-.14.24-.094.498-.218.775-.371.277-.154.569-.33.876-.528a23.827 23.827 0 0 0 2.47-1.847.604.604 0 0 1 .337-.124c.128 0 .232.056.315.169a.703.703 0 0 1 .123.426c0 .173-.041.348-.123.528-.083.18-.232.356-.45.528-.486.442-.978.861-1.476 1.258s-.992.747-1.483 1.05c-.49.303-.975.545-1.454.724-.48.18-.943.27-1.393.27-.3 0-.55-.04-.752-.118a1.245 1.245 0 0 1-.489-.326 1.218 1.218 0 0 1-.264-.483 2.137 2.137 0 0 1-.078-.59c0-.374.063-.763.19-1.167.128-.405.27-.768.427-1.09l.669-1.381c.22-.457.436-.895.645-1.314h-.482c-.42 0-.708-.067-.865-.202-.157-.135-.236-.288-.236-.46a.7.7 0 0 1 .073-.276c.049-.108.12-.21.213-.303.094-.094.208-.174.343-.241.135-.068.288-.101.46-.101h1.213l2.37-4.706c.15-.285.335-.489.556-.612.22-.124.45-.185.69-.185.225 0 .43.06.618.18.187.12.28.317.28.594 0 .143-.031.287-.095.433a7.017 7.017 0 0 1-.252.51c-.068.128-.15.28-.247.456a139.007 139.007 0 0 0-.989 1.813c-.254.48-.524.985-.808 1.517h3.66c.18 0 .345.009.495.028.15.018.279.056.387.112a.628.628 0 0 1 .253.23c.06.097.09.228.09.393a.81.81 0 0 1-.04.247.53.53 0 0 1-.145.225.834.834 0 0 1-.292.168 1.836 1.836 0 0 1-.478.09l-4.671.034zm7.019.112c-.352 0-.693.09-1.022.27a3.17 3.17 0 0 0-.876.707c-.255.292-.457.62-.607.983-.15.363-.224.728-.224 1.095 0 .15.009.305.028.466.018.16.061.309.129.444a.92.92 0 0 0 .286.336c.124.09.29.135.5.135.165 0 .357-.073.578-.219.221-.146.45-.333.685-.561a9 9 0 0 0 .691-.753c.225-.273.427-.54.606-.803.18-.262.326-.498.438-.707.113-.21.169-.363.169-.46a.588.588 0 0 0-.146-.388 1.339 1.339 0 0 0-.36-.298 1.787 1.787 0 0 0-.454-.185 1.732 1.732 0 0 0-.421-.062zm7.782 2.898c-.134.127-.314.303-.539.527a22.461 22.461 0 0 1-1.69 1.522c-.326.266-.659.507-1 .725-.34.217-.675.394-1.005.533a2.41 2.41 0 0 1-.932.208c-.262 0-.486-.056-.674-.169a1.488 1.488 0 0 1-.466-.438 1.938 1.938 0 0 1-.275-.612 2.755 2.755 0 0 1-.09-.702c0-.157.012-.312.034-.466a1.98 1.98 0 0 1 .112-.432 13.95 13.95 0 0 1-.791.971 7.809 7.809 0 0 1-.955.91c-.34.273-.696.498-1.067.674-.37.176-.747.264-1.128.264-.195 0-.422-.04-.68-.118a2.285 2.285 0 0 1-.736-.388 2.229 2.229 0 0 1-.584-.696c-.157-.284-.235-.633-.235-1.044 0-.307.046-.674.14-1.1a8.184 8.184 0 0 1 1.157-2.695 5.98 5.98 0 0 1 1.05-1.209 5.125 5.125 0 0 1 1.381-.864 4.357 4.357 0 0 1 1.73-.332c.33 0 .617.042.864.124.247.082.457.172.63.27.194.12.366.25.516.393.127-.068.258-.131.393-.191.112-.053.23-.1.354-.14.123-.042.23-.062.32-.062.284 0 .516.078.696.235.18.158.27.33.27.517a.533.533 0 0 1-.012.123 6.533 6.533 0 0 1-.174.54c-.078.217-.166.458-.264.724a64.14 64.14 0 0 0-.297.831c-.101.288-.193.57-.275.848-.083.277-.15.537-.202.78a3.035 3.035 0 0 0-.08.624c0 .224.038.41.113.556.075.146.202.219.382.219a.978.978 0 0 0 .399-.107 3.78 3.78 0 0 0 .5-.286c.18-.12.364-.257.555-.41.191-.154.377-.31.556-.466a28.9 28.9 0 0 0 1.337-1.28.56.56 0 0 1 .348-.147c.15 0 .275.073.376.22a.839.839 0 0 1 .152.488c0 .21-.071.385-.214.528zm10.703-2.044c.105-.06.202-.109.292-.146a.671.671 0 0 1 .258-.056c.165 0 .288.061.37.185a.802.802 0 0 1 .124.455c0 .194-.05.393-.151.595-.101.202-.253.37-.455.505a113.72 113.72 0 0 0-2.145 1.64c-.629.494-1.222.919-1.78 1.275a8.484 8.484 0 0 1-1.634.825c-.532.195-1.1.292-1.707.292-.57 0-1.009-.105-1.32-.314a.99.99 0 0 1-.466-.865v-.084a.5.5 0 0 1 .011-.096c.03-.225.146-.483.349-.775a9.03 9.03 0 0 1 .73-.91c.284-.314.587-.632.91-.954.321-.322.619-.627.892-.915.273-.289.5-.553.68-.792.18-.24.269-.434.269-.584a.247.247 0 0 0-.112-.213c-.075-.053-.199-.08-.37-.08-.3 0-.61.066-.927.197a4.759 4.759 0 0 0-.944.528c-.31.221-.614.474-.91.758a11.933 11.933 0 0 0-1.539 1.814c-.212.31-.394.597-.544.86l-.19.347c-.083.15-.173.319-.27.506-.097.187-.2.38-.309.578-.109.199-.208.386-.298.562l-.241.471a8.555 8.555 0 0 1-.152.287c-.037.067-.099.194-.185.382l-.298.656a574.16 574.16 0 0 0-.701 1.578l-.287.652a5.475 5.475 0 0 0-.157.382 3.73 3.73 0 0 1-.264.55 2.249 2.249 0 0 1-.348.455c-.131.13-.28.236-.45.314a1.325 1.325 0 0 1-.567.118c-.269 0-.492-.054-.668-.163-.176-.108-.264-.316-.264-.623 0-.15.023-.303.068-.46a3.66 3.66 0 0 1 .168-.467c.068-.153.137-.303.208-.449.071-.146.137-.286.197-.42.404-.75.816-1.5 1.235-2.253.42-.752.822-1.497 1.207-2.235.386-.737.743-1.461 1.073-2.173.33-.71.602-1.392.82-2.044.06-.134.142-.325.247-.572.104-.247.224-.49.359-.73.135-.24.286-.448.455-.624.168-.176.35-.263.544-.263.3 0 .517.058.652.174.135.116.202.286.202.51 0 .045-.008.117-.023.214a6.127 6.127 0 0 1-.129.618 1.23 1.23 0 0 1-.073.213c.277-.255.577-.507.899-.758.322-.25.655-.477 1-.68a6.12 6.12 0 0 1 1.055-.494c.36-.127.719-.19 1.078-.19.247 0 .492.03.736.09.243.06.46.147.651.263.19.116.346.262.466.438.12.176.18.38.18.612 0 .307-.092.635-.275.983a6.923 6.923 0 0 1-.691 1.05c-.277.352-.577.694-.898 1.028-.322.333-.624.636-.905.91-.28.273-.516.505-.707.696-.191.19-.29.32-.298.387 0 .09.034.163.101.219.068.056.18.084.337.084.128 0 .315-.06.562-.18.247-.12.593-.327 1.039-.623.445-.296 1.01-.692 1.695-1.19.686-.498 1.53-1.125 2.533-1.881zm1.01 2.032a5.71 5.71 0 0 0-.24.601 1.907 1.907 0 0 0-.119.612c0 .113.023.202.068.27.045.067.13.1.258.1.157 0 .354-.046.59-.14.235-.093.49-.217.763-.37.274-.154.558-.33.854-.528a26.803 26.803 0 0 0 1.718-1.258c.266-.213.504-.41.713-.59a.531.531 0 0 1 .214-.112.83.83 0 0 1 .213-.033c.15 0 .273.052.37.157a.586.586 0 0 1 .147.415c0 .158-.053.334-.158.528-.105.195-.288.386-.55.573-.48.442-.962.861-1.449 1.258-.486.397-.971.747-1.454 1.05a8.089 8.089 0 0 1-1.438.724 3.91 3.91 0 0 1-1.387.27c-.306 0-.563-.041-.769-.124a1.26 1.26 0 0 1-.494-.337 1.257 1.257 0 0 1-.264-.505 2.367 2.367 0 0 1-.078-.618c0-.367.054-.743.162-1.128.109-.386.238-.74.388-1.062.262-.584.528-1.164.797-1.74l.741-1.584 3.403-7.244c.135-.292.317-.497.545-.617.228-.12.458-.18.69-.18.233 0 .444.064.635.191s.286.333.286.618c0 .134-.031.277-.095.426-.064.15-.144.311-.241.483-.188.352-.41.783-.669 1.292a171.63 171.63 0 0 0-1.74 3.532l-.91 1.892a192.957 192.957 0 0 0-1.5 3.178zm8.682-3.38a.52.52 0 0 0-.101-.011h-.101c-.285 0-.55.056-.798.168a2.69 2.69 0 0 0-.68.444 3.51 3.51 0 0 0-.55.623 8.331 8.331 0 0 0-.432.69 6.174 6.174 0 0 0-.32.658c-.086.21-.151.385-.196.528.262-.135.533-.289.814-.46.28-.173.545-.338.792-.495.247-.157.462-.3.645-.427.184-.127.313-.213.388-.258.337-.21.569-.406.696-.59.127-.183.191-.342.191-.477a.354.354 0 0 0-.107-.27.455.455 0 0 0-.241-.123zm.404-1.55c.622 0 1.086.15 1.393.45.307.299.46.714.46 1.246 0 .314-.082.644-.247.988-.165.345-.45.695-.853 1.05-.405.356-.946.72-1.623 1.09-.678.37-1.526.743-2.544 1.117a.732.732 0 0 0 .348.511c.195.124.453.185.775.185.345 0 .713-.05 1.106-.151a9.08 9.08 0 0 0 1.168-.388c.386-.157.762-.327 1.129-.51a25.39 25.39 0 0 0 1.735-.95c.198-.12.331-.194.399-.224a.45.45 0 0 1 .185-.079c.056-.007.107-.011.152-.011.09 0 .164.02.224.062.06.04.11.09.152.146.041.056.07.116.084.18a.73.73 0 0 1 .023.162c0 .068-.008.148-.023.242a.719.719 0 0 1-.168.32 6.104 6.104 0 0 1-.377.303c-.213.165-.488.36-.825.584-.337.225-.728.462-1.174.713-.445.25-.917.481-1.415.69-.498.21-1.016.384-1.555.523a6.39 6.39 0 0 1-1.595.208c-.449 0-.848-.086-1.196-.259a2.697 2.697 0 0 1-.887-.696 3.086 3.086 0 0 1-.556-1.01 3.775 3.775 0 0 1-.19-1.202c0-.322.063-.676.19-1.062.127-.385.31-.773.55-1.162.24-.39.534-.77.882-1.14.348-.37.74-.698 1.174-.982a6.09 6.09 0 0 1 1.431-.685 5.275 5.275 0 0 1 1.668-.259zm6.783 1.629a10.58 10.58 0 0 1 1.808-.882c.292-.109.571-.195.837-.258.266-.064.504-.096.713-.096.337 0 .597.08.78.242.184.16.276.432.276.814 0 .082-.004.17-.011.264a2.3 2.3 0 0 1-.045.297c-.038.195-.15.423-.337.686a10.32 10.32 0 0 1-.657.82c-.25.284-.52.57-.809.858l-.797.798c-.243.243-.446.455-.607.634-.16.18-.241.304-.241.371 0 .06.004.101.011.124.008.022.041.033.101.033.405-.172.856-.38 1.354-.623.497-.243.993-.492 1.488-.747a57.302 57.302 0 0 0 2.526-1.381c.068-.038.137-.07.208-.096a.572.572 0 0 1 .197-.039c.135 0 .247.045.337.135.09.09.134.21.134.36 0 .171-.073.368-.219.589-.146.22-.39.45-.735.69l-.882.556c-.325.206-.666.42-1.022.64-.355.221-.715.437-1.078.646-.363.21-.713.397-1.05.562a8.257 8.257 0 0 1-.949.398 2.436 2.436 0 0 1-.77.152c-.516 0-.903-.124-1.161-.37-.259-.248-.388-.566-.388-.955 0-.06.004-.105.011-.135.053-.33.15-.648.292-.955.143-.307.304-.599.483-.876.18-.277.367-.54.562-.791.194-.251.372-.487.533-.708.161-.22.294-.425.399-.612.105-.187.157-.36.157-.516a.3.3 0 0 0-.022-.113c-.015-.037-.05-.056-.101-.056-.09 0-.238.034-.444.101a5.313 5.313 0 0 0-1.32.657c-.21.146-.359.301-.449.466-.12.21-.258.476-.415.798-.158.322-.32.658-.489 1.01-.168.352-.331.7-.488 1.045l-.405.887c-.09.217-.208.412-.354.584a2.493 2.493 0 0 1-1.005.719c-.18.067-.344.1-.494.1a.595.595 0 0 1-.41-.134c-.1-.09-.151-.236-.151-.438a1.525 1.525 0 0 1 .202-.719c.135-.254.271-.531.41-.83a396.097 396.097 0 0 1 1.1-2.354c.236-.497.515-1.072.837-1.723a1.014 1.014 0 0 1-.37-.82c0-.18.037-.335.112-.466a.92.92 0 0 1 .303-.32c.127-.083.275-.145.444-.186a2.24 2.24 0 0 1 .533-.061c.195 0 .39.016.584.05.195.034.369.084.522.152.154.067.28.15.376.247.098.097.146.21.146.337a.259.259 0 0 1-.022.09 9.405 9.405 0 0 1-.101.247.259.259 0 0 0-.023.09c0 .014.004.022.012.022h.01l.023-.011z"/>
        <path fill="#FF4038" d="M8 30V15h6.337c3.262 0 5.449 1.904 5.449 5.098 0 2.08-.932 3.537-2.495 4.306L20.274 30h-4.33l-2.582-4.951h-1.376V30H8zm3.986-8.115h1.405c1.398 0 2.237-.506 2.237-1.787 0-1.29-.839-1.846-2.237-1.846h-1.405v3.633zM21.478 30V15H32.06v3.281h-6.596v2.578h6.05v3.282h-6.05v2.578h6.567V30H21.478zm18.21 0h-5.65V15h5.592c4.531 0 7.37 2.813 7.37 7.5 0 4.688-2.839 7.5-7.312 7.5zm-1.664-3.457h1.52c2.18 0 3.441-.908 3.441-4.043 0-3.135-1.261-4.043-3.556-4.043h-1.405v8.086z"/>
    </g>
</svg>
